<svg width="12" height="12" viewBox="0 0 12 12" fill="none" xmlns="http://www.w3.org/2000/svg">
<path d="M8.3291 4.64319C9.049 5.0931 9.4089 5.31805 9.53235 5.6061C9.64015 5.8576 9.64015 6.14235 9.53235 6.3939C9.4089 6.6819 9.049 6.90685 8.3291 7.3568L4.948 9.47C4.14902 9.96935 3.74953 10.2191 3.41986 10.1925C3.1325 10.1694 2.86909 10.0235 2.6972 9.792C2.5 9.5265 2.5 9.0554 2.5 8.1132V3.88679C2.5 2.9446 2.5 2.47351 2.6972 2.20799C2.86909 1.97655 3.1325 1.83056 3.41986 1.80745C3.74953 1.78095 4.14902 2.03063 4.948 2.52999L8.3291 4.64319Z" stroke="#DDDDDD" stroke-width="1.2" stroke-linejoin="round"/>
</svg>
