<svg width="24" height="24" viewBox="0 0 24 24" fill="none" xmlns="http://www.w3.org/2000/svg">
<path d="M10.5 3C11.3284 3 12 3.67158 12 4.5C12 5.32842 11.3284 6 10.5 6H6V18H18V13.5C18 12.6716 18.6715 12 19.5 12C20.3284 12 21 12.6716 21 13.5V18C21 19.6569 19.6569 21 18 21H6C4.34314 21 3 19.6569 3 18V6C3 4.34314 4.34314 3 6 3H10.5ZM19.5 0C20.3284 0 21 0.671572 21 1.5V3H22.5C23.3284 3 24 3.67158 24 4.5C24 5.32842 23.3284 6 22.5 6H21V7.5C21 8.32842 20.3284 9 19.5 9C18.6715 9 18 8.32842 18 7.5V6H16.5C15.6715 6 15 5.32842 15 4.5C15 3.67158 15.6715 3 16.5 3H18V1.5C18 0.671572 18.6715 0 19.5 0Z" fill="#30475E"/>
</svg>
